# xmcd
#
# Track frame offsets: 
#        150
#        16153
#        28600
#        42091
#        56082
#        66886
#        80938
#        99289
#        116074
#        130180
#        147860
#        165720
#
# Disc length: 2434 seconds
#
# Revision: 0
# Processed by: cddbd v1.5.1PL2 Copyright (c) Steve Scherf et al.
# Submitted via: ExactAudioCopy v0.95b4
#
DISCID=a009800c
DTITLE=รวมศิลปิน - เทศกาลงานบุญ
DYEAR=1900
DGENRE=Country
TTITLE0=โชคดีปีใหม่
TTITLE1=พรชัยตรุษจีน
TTITLE2=สงกรานต์ทั่วไทย
TTITLE3=สุขสันต์วันเกิด
TTITLE4=วันลอยกระทง
TTITLE5=ประเพณีงานบุญ
TTITLE6=งานบวชนาค
TTITLE7=พรวันแต่งงาน
TTITLE8=พรขึ้นบ้านใหม่
TTITLE9=วันแรงงาน
TTITLE10=ดวงใจประชา (วันพ่อ)
TTITLE11=พระแม่สยาม (วันแม่)
EXTD=
EXTT0=
EXTT1=
EXTT2=
EXTT3=
EXTT4=
EXTT5=
EXTT6=
EXTT7=
EXTT8=
EXTT9=
EXTT10=
EXTT11=
PLAYORDER=
